<svg width="700" height="700" viewBox="0 0 700 700" fill="none" xmlns="http://www.w3.org/2000/svg">
<path fill-rule="evenodd" clip-rule="evenodd" d="M159.091 0H540.909C628.568 0 700 71.4318 700 159.091V540.909C700 628.568 628.568 700 540.909 700H159.091C71.4318 700 0 628.568 0 540.909V159.091C0 71.4318 71.4318 0 159.091 0ZM373.545 477.273H405.364V222.727H373.545V334.091H214.455V222.727H182.636V477.273H214.455V365.909H373.545V477.273ZM433.452 533.25C433.452 535.65 434.802 537 437.202 537H526.752C529.152 537 530.502 535.65 530.502 533.25V520.8C530.502 518.4 529.152 517.05 526.752 517.05H468.552L502.452 496.95C523.302 484.65 530.802 479.7 530.802 461.7C530.802 442.35 521.352 431.1 495.252 431.1H469.002C441.102 431.1 433.452 445.2 433.452 467.7V469.8C433.452 471.15 434.802 471.9 437.202 471.9H450.552C452.952 471.9 454.302 470.55 454.302 468.15V466.95C454.302 453.6 458.202 451.05 469.002 451.05H494.652C506.352 451.05 510.102 453.45 510.102 463.2C510.102 470.25 507.402 472.5 496.002 479.25L436.002 515.4C434.352 516.45 433.452 517.95 433.452 519.9V533.25Z" fill="#4FAFA8"/>
</svg>
